# xmcd
#
# Track frame offsets:
#	150
#	15934
#	31644
#	49756
#	74888
#	84817
#	111081
#	131934
#	144317
#	164283
#	182733
#	200613
#	215950
#	226703
#
# Disc length: 3244 seconds
#
# Revision: 1
# Processed by: cddbd v1.4PL0 Copyright (c) Steve Scherf et al.
# Submitted via: CDmax 1.8
#
DISCID=bf0caa0e
DTITLE=Motor City Josh - Acousticly Sound 1995-2001
DYEAR=2001
DGENRE=Blues
TTITLE0=Big Boss Man
TTITLE1=I'm Ready
TTITLE2=Shake Your Money Maker
TTITLE3=The Sky Is Cryin'
TTITLE4=The Kitty Cat Song
TTITLE5=Rollin' and Tumblin'
TTITLE6=Litle Red Rooster
TTITLE7=Crazy Love
TTITLE8=King Bee
TTITLE9=Ice Cream Man
TTITLE10=Big Fat Blues
TTITLE11=The Bluesman
TTITLE12=No Fish
TTITLE13="Dangerous" Dan's Boogie
EXTD=motorcityjosh.com
EXTT0=
EXTT1=
EXTT2=
EXTT3=
EXTT4=
EXTT5=
EXTT6=
EXTT7=
EXTT8=
EXTT9=
EXTT10=
EXTT11=
EXTT12=
EXTT13=
PLAYORDER=
